<svg width="26" height="26" viewBox="0 0 26 26" fill="none" xmlns="http://www.w3.org/2000/svg">
<path d="M13 7.58334C11.5634 7.58334 10.1857 8.15403 9.16985 9.16985C8.15403 10.1857 7.58334 11.5634 7.58334 13C7.58334 14.4366 8.15403 15.8144 9.16985 16.8302C10.1857 17.846 11.5634 18.4167 13 18.4167C14.4366 18.4167 15.8144 17.846 16.8302 16.8302C17.846 15.8144 18.4167 14.4366 18.4167 13C18.4167 11.5634 17.846 10.1857 16.8302 9.16985C15.8144 8.15403 14.4366 7.58334 13 7.58334V7.58334Z" fill="black"/>
<path fill-rule="evenodd" clip-rule="evenodd" d="M13 1.08334C13.2873 1.08334 13.5629 1.19748 13.766 1.40064C13.9692 1.60381 14.0833 1.87936 14.0833 2.16668V3.25001C14.0833 3.53733 13.9692 3.81288 13.766 4.01604C13.5629 4.21921 13.2873 4.33334 13 4.33334C12.7127 4.33334 12.4371 4.21921 12.234 4.01604C12.0308 3.81288 11.9167 3.53733 11.9167 3.25001V2.16668C11.9167 1.87936 12.0308 1.60381 12.234 1.40064C12.4371 1.19748 12.7127 1.08334 13 1.08334V1.08334ZM3.56743 3.56743C3.77058 3.36433 4.04608 3.25024 4.33334 3.25024C4.6206 3.25024 4.8961 3.36433 5.09926 3.56743L6.72426 5.19243C6.9216 5.39675 7.03079 5.6704 7.02832 5.95444C7.02586 6.23849 6.91192 6.5102 6.71106 6.71106C6.5102 6.91192 6.23849 7.02586 5.95444 7.02832C5.6704 7.03079 5.39675 6.9216 5.19243 6.72426L3.56743 5.09926C3.36433 4.8961 3.25024 4.6206 3.25024 4.33334C3.25024 4.04608 3.36433 3.77058 3.56743 3.56743V3.56743ZM22.4326 3.56743C22.6357 3.77058 22.7498 4.04608 22.7498 4.33334C22.7498 4.6206 22.6357 4.8961 22.4326 5.09926L20.8076 6.72426C20.7077 6.82773 20.5881 6.91026 20.4559 6.96704C20.3238 7.02381 20.1816 7.0537 20.0378 7.05495C19.8939 7.0562 19.7513 7.02879 19.6181 6.97432C19.485 6.91985 19.364 6.8394 19.2623 6.73769C19.1606 6.63597 19.0802 6.51501 19.0257 6.38188C18.9712 6.24874 18.9438 6.10609 18.9451 5.96224C18.9463 5.8184 18.9762 5.67624 19.033 5.54407C19.0898 5.4119 19.1723 5.29236 19.2758 5.19243L20.9008 3.56743C21.1039 3.36433 21.3794 3.25024 21.6667 3.25024C21.9539 3.25024 22.2294 3.36433 22.4326 3.56743ZM1.08334 13C1.08334 12.7127 1.19748 12.4371 1.40064 12.234C1.60381 12.0308 1.87936 11.9167 2.16668 11.9167H3.25001C3.53733 11.9167 3.81288 12.0308 4.01604 12.234C4.21921 12.4371 4.33334 12.7127 4.33334 13C4.33334 13.2873 4.21921 13.5629 4.01604 13.766C3.81288 13.9692 3.53733 14.0833 3.25001 14.0833H2.16668C1.87936 14.0833 1.60381 13.9692 1.40064 13.766C1.19748 13.5629 1.08334 13.2873 1.08334 13ZM21.6667 13C21.6667 12.7127 21.7808 12.4371 21.984 12.234C22.1871 12.0308 22.4627 11.9167 22.75 11.9167H23.8333C24.1207 11.9167 24.3962 12.0308 24.5994 12.234C24.8025 12.4371 24.9167 12.7127 24.9167 13C24.9167 13.2873 24.8025 13.5629 24.5994 13.766C24.3962 13.9692 24.1207 14.0833 23.8333 14.0833H22.75C22.4627 14.0833 22.1871 13.9692 21.984 13.766C21.7808 13.5629 21.6667 13.2873 21.6667 13ZM6.72426 19.2758C6.92735 19.4789 7.04144 19.7544 7.04144 20.0417C7.04144 20.3289 6.92735 20.6044 6.72426 20.8076L5.09926 22.4326C4.89494 22.6299 4.62129 22.7391 4.33724 22.7367C4.0532 22.7342 3.78148 22.6203 3.58062 22.4194C3.37976 22.2185 3.26583 21.9468 3.26336 21.6628C3.26089 21.3787 3.37009 21.1051 3.56743 20.9008L5.19243 19.2758C5.39558 19.0727 5.67108 18.9586 5.95834 18.9586C6.2456 18.9586 6.5211 19.0727 6.72426 19.2758V19.2758ZM19.2758 19.2758C19.4789 19.0727 19.7544 18.9586 20.0417 18.9586C20.3289 18.9586 20.6044 19.0727 20.8076 19.2758L22.4326 20.9008C22.6299 21.1051 22.7391 21.3787 22.7367 21.6628C22.7342 21.9468 22.6203 22.2185 22.4194 22.4194C22.2185 22.6203 21.9468 22.7342 21.6628 22.7367C21.3787 22.7391 21.1051 22.6299 20.9008 22.4326L19.2758 20.8076C19.0727 20.6044 18.9586 20.3289 18.9586 20.0417C18.9586 19.7544 19.0727 19.4789 19.2758 19.2758ZM13 21.6667C13.2873 21.6667 13.5629 21.7808 13.766 21.984C13.9692 22.1871 14.0833 22.4627 14.0833 22.75V23.8333C14.0833 24.1207 13.9692 24.3962 13.766 24.5994C13.5629 24.8025 13.2873 24.9167 13 24.9167C12.7127 24.9167 12.4371 24.8025 12.234 24.5994C12.0308 24.3962 11.9167 24.1207 11.9167 23.8333V22.75C11.9167 22.4627 12.0308 22.1871 12.234 21.984C12.4371 21.7808 12.7127 21.6667 13 21.6667V21.6667Z" fill="black"/>
</svg>
