<svg width="482" height="60" viewBox="0 0 482 60" fill="none" xmlns="http://www.w3.org/2000/svg">
<path d="M1 55.4124C1 55.4124 6.8898 52.1835 10.8163 46.4433C14.7429 40.7031 16.7061 32.0928 20.6327 26.7113C24.5592 21.3299 26.5224 19.5361 30.449 19.5361C34.3755 19.5361 36.3388 35.6804 40.2653 35.6804C44.1918 35.6804 46.1551 18.3402 50.0816 12.3608C54.0082 6.38144 55.9714 5.7835 59.898 5.7835C63.8245 5.7835 65.7878 39.866 69.7143 48.2371C73.6408 56.6082 75.6041 56.6082 79.5306 56.6082C83.4571 56.6082 85.4204 56.6082 89.3469 51.8247C93.2735 47.0412 95.2367 3.39175 99.1633 3.39175C103.09 3.39175 105.053 56.0103 108.98 56.0103C112.906 56.0103 114.869 5.78351 118.796 3.98969C122.722 2.19588 124.686 2.19588 128.612 2.19588C132.539 2.19588 134.502 30.8969 138.429 30.8969C142.355 30.8969 144.318 12.9588 148.245 12.9588C152.171 12.9588 154.135 56.0103 158.061 56.0103C161.988 56.0103 163.951 50.6289 167.878 50.6289C171.804 50.6289 173.767 59 177.694 59C181.62 59 183.584 46.4433 187.51 35.0825C191.437 23.7216 193.4 2.19588 197.327 2.19588C201.253 2.19588 203.216 38.0722 207.143 38.0722C211.069 38.0722 213.033 14.1546 216.959 14.1546C220.886 14.1546 222.849 25.0371 226.776 29.701C230.702 34.3649 232.665 37.4742 236.592 37.4742C240.518 37.4742 242.482 34.4845 246.408 34.4845C250.335 34.4845 252.298 37.4742 256.224 37.4742C260.151 37.4742 262.114 6.38144 266.041 6.38144C269.967 6.38144 271.931 56.6082 275.857 56.6082C279.784 56.6082 281.747 39.866 285.673 39.866C289.6 39.866 291.563 39.866 295.49 39.866C299.416 39.866 301.38 39.866 305.306 34.4845C309.233 29.1031 311.196 1 315.122 1C319.049 1 321.012 4.94639 324.939 15.3505C328.865 25.7546 330.829 51.8247 334.755 53.0206C338.682 54.2165 340.645 54.2165 344.571 54.2165C348.498 54.2165 350.461 23.7216 354.388 23.7216C358.314 23.7216 360.278 45.8454 364.204 45.8454C368.131 45.8454 370.094 45.1278 374.02 44.0515C377.947 42.9753 379.91 44.0515 383.837 40.4639C387.763 36.8763 389.727 17.1443 393.653 17.1443C397.58 17.1443 399.543 56.6082 403.469 56.6082C407.396 56.6082 409.359 41.6598 413.286 32.0928C417.212 22.5258 419.176 8.7732 423.102 8.7732C427.029 8.7732 428.992 41.0619 432.918 41.0619C436.845 41.0619 438.808 27.3093 442.735 27.3093C446.661 27.3093 448.625 39.866 452.551 44.0515C456.478 48.2371 458.441 46.6825 462.367 48.2371C466.294 49.7918 468.257 51.8247 472.184 51.8247C476.11 51.8247 482 51.8247 482 51.8247" stroke="#A6CEE3" stroke-width="2"/>
</svg>
